HIERARCHY
ROOT Hips
{
	OFFSET 0.000000 0.000000 0.000000
	CHANNELS 6 Xposition Yposition Zposition Zrotation Yrotation Xrotation 
	JOINT LHipJoint
	{
		OFFSET 0.000000 0.000000 0.000000
		CHANNELS 3 Zrotation Yrotation Xrotation
		JOINT LeftUpLeg
		{
			OFFSET 1.363060 -1.794630 0.839290
			CHANNELS 3 Zrotation Yrotation Xrotation
			JOINT LeftLeg
			{
				OFFSET 2.448110 -6.726130 0.000000
				CHANNELS 3 Zrotation Yrotation Xrotation
				JOINT LeftFoot
				{
					OFFSET 2.562200 -7.039590 0.000000
					CHANNELS 3 Zrotation Yrotation Xrotation
					JOINT LeftToeBase
					{
						OFFSET 0.157640 -0.433110 2.322550
						CHANNELS 3 Zrotation Yrotation Xrotation
						End Site
						{
							OFFSET 0.000000 0.000000 0.000000
						}
					}
				}
			}
		}
	}
	JOINT RHipJoint
	{
		OFFSET 0.000000 0.000000 0.000000
		CHANNELS 3 Zrotation Yrotation Xrotation
		JOINT RightUpLeg
		{
			OFFSET -1.305520 -1.794630 0.839290
			CHANNELS 3 Zrotation Yrotation Xrotation
			JOINT RightLeg
			{
				OFFSET -2.542530 -6.985550 0.000000
				CHANNELS 3 Zrotation Yrotation Xrotation
				JOINT RightFoot
				{
					OFFSET -2.568260 -7.056230 0.000000
					CHANNELS 3 Zrotation Yrotation Xrotation
					JOINT RightToeBase
					{
						OFFSET -0.164730 -0.452590 2.363150
						CHANNELS 3 Zrotation Yrotation Xrotation
						End Site
						{
							OFFSET 0.000000 0.000000 0.000000
						}
					}
				}
			}
		}
	}
	JOINT LowerBack
	{
		OFFSET 0.000000 0.000000 0.000000
		CHANNELS 3 Zrotation Yrotation Xrotation
		JOINT Spine
		{
			OFFSET 0.028270 2.035590 -0.193380
			CHANNELS 3 Zrotation Yrotation Xrotation
			JOINT Spine1
			{
				OFFSET 0.056720 2.048850 -0.042750
				CHANNELS 3 Zrotation Yrotation Xrotation
				JOINT Neck
				{
					OFFSET 0.000000 0.000000 0.000000
					CHANNELS 3 Zrotation Yrotation Xrotation
					JOINT Neck1
					{
						OFFSET -0.054170 1.746240 0.172020
						CHANNELS 3 Zrotation Yrotation Xrotation
						JOINT Head
						{
							OFFSET 0.104070 1.761360 -0.123970
							CHANNELS 3 Zrotation Yrotation Xrotation
							End Site
							{
								OFFSET 0.000000 0.000000 0.000000
							}
						}
					}
				}
				JOINT LeftShoulder
				{
					OFFSET 0.000000 0.000000 0.000000
					CHANNELS 3 Zrotation Yrotation Xrotation
					JOINT LeftArm
					{
						OFFSET 3.362410 1.200890 -0.311210
						CHANNELS 3 Zrotation Yrotation Xrotation
						JOINT LeftForeArm
						{
							OFFSET 4.983000 -0.000000 -0.000000
							CHANNELS 3 Zrotation Yrotation Xrotation
							JOINT LeftHand
							{
								OFFSET 3.483560 -0.000000 -0.000000
								CHANNELS 3 Zrotation Yrotation Xrotation
								JOINT LeftFingerBase
								{
									OFFSET 0.000000 0.000000 0.000000
									CHANNELS 3 Zrotation Yrotation Xrotation
									JOINT LeftHandIndex1
									{
										OFFSET 0.715260 -0.000000 -0.000000
										CHANNELS 3 Zrotation Yrotation Xrotation
										End Site
										{
											OFFSET 0.000000 0.000000 0.000000
										}
									}
								}
								JOINT LThumb
								{
									OFFSET 0.000000 0.000000 0.000000
									CHANNELS 3 Zrotation Yrotation Xrotation
									End Site
									{
										OFFSET 0.000000 0.000000 0.000000
									}
								}
							}
						}
					}
				}
				JOINT RightShoulder
				{
					OFFSET 0.000000 0.000000 0.000000
					CHANNELS 3 Zrotation Yrotation Xrotation
					JOINT RightArm
					{
						OFFSET -3.136600 1.374050 -0.404650
						CHANNELS 3 Zrotation Yrotation Xrotation
						JOINT RightForeArm
						{
							OFFSET -5.241900 -0.000000 -0.000000
							CHANNELS 3 Zrotation Yrotation Xrotation
							JOINT RightHand
							{
								OFFSET -3.444170 -0.000000 -0.000000
								CHANNELS 3 Zrotation Yrotation Xrotation
								JOINT RightFingerBase
								{
									OFFSET 0.000000 0.000000 0.000000
									CHANNELS 3 Zrotation Yrotation Xrotation
									JOINT RightHandIndex1
									{
										OFFSET -0.622530 -0.000000 -0.000000
										CHANNELS 3 Zrotation Yrotation Xrotation
										End Site
										{
											OFFSET 0.000000 0.000000 0.000000
										}
									}
								}
								JOINT RThumb
								{
									OFFSET 0.000000 0.000000 0.000000
									CHANNELS 3 Zrotation Yrotation Xrotation
									End Site
									{
										OFFSET 0.000000 0.000000 0.000000
									}
								}
							}
						}
					}
				}
			}
		}
	}
}
MOTION
Frames: 7
Frame Time: 0.008333
1.093486 16.915749 0.176282 -21.418564 -81.488023 9.894571 -11.147024 2.778331 1.094682 -3.870912 6.178699 2.289789 -0.832957 1.153114 24.848915 2.754691 16.284855 -14.256766 -2.028600 -0.000000 -36.902800 10.499077 -2.644644 -4.121651 -1.059972 -27.448812 -3.116968 -0.360849 -3.128832 43.582597 -1.974733 -11.750409 7.512223 -2.895500 0.000000 -85.775600 -7.364604 -2.656965 1.392500 -1.848916 -2.292832 -2.101644 -4.240273 -2.260940 1.530145 7.285783 -22.502958 -7.916942 -0.030962 0.007429 -0.064465 0.000000 0.000000 0.000000 10.104328 17.890566 -0.312159 -59.326617 26.719618 6.389713 -2.924246 -45.964879 -0.000139 -6.998785 1.186812 -0.071547 -0.050988 0.001777 -0.000000 0.000000 0.000000 0.000000 0.000000 0.000000 0.000000 3.827392 -18.556321 -0.737792 66.811877 -12.765307 14.878024 2.125271 42.150348 0.010742 1.246163 6.030320 0.063115 0.074657 -0.077499 -0.000000 0.000000 0.000000 0.000000 0.000000 0.000000 0.000000 
1.091279 16.924642 0.214018 -22.372177 -80.843082 10.649666 -11.167988 2.749161 1.131672 -3.623385 5.865136 2.673353 -0.805563 1.139862 24.562003 2.725283 16.077515 -14.213255 -1.991900 -0.000000 -37.009501 10.580637 -2.605482 -4.205241 -1.136429 -27.910410 -4.382493 -0.519475 -3.251098 45.905503 -2.052304 -12.041657 9.682770 -3.297600 -0.000001 -85.260400 -7.408125 -2.739209 1.480900 -1.874698 -2.381629 -2.088862 -4.308856 -2.346187 1.488313 7.233693 -22.400095 -7.892567 -0.049946 0.005760 -0.060209 0.000000 0.000000 0.000000 10.358254 17.627832 -0.367046 -58.906950 26.838613 7.092868 -2.797373 -47.229998 0.000356 -6.992069 1.186706 -0.071367 -0.043867 0.004962 -0.000000 0.000000 0.000000 0.000000 0.000000 0.000000 0.000000 3.841275 -18.477522 -0.689846 67.420989 -13.175062 13.992258 2.219391 41.007474 0.011128 1.407563 6.064480 0.072012 0.076581 -0.074525 -0.000000 0.000000 0.000000 0.000000 0.000000 0.000000 0.000000 
1.090916 16.933096 0.250328 -23.413501 -80.183112 11.490349 -11.195467 2.712679 1.161536 -3.325371 5.562004 3.023203 -0.774029 1.128740 24.325979 2.694486 15.862604 -14.180381 -1.958000 -0.000000 -37.121400 10.651921 -2.554245 -4.296845 -1.132513 -28.353555 -5.712341 -0.660114 -3.367917 48.259978 -2.149038 -12.414511 11.692449 -3.708701 0.000000 -84.063300 -7.430606 -2.827387 1.589280 -1.896860 -2.477931 -2.072561 -4.381498 -2.438662 1.443211 7.199104 -22.304393 -7.876770 -0.070179 0.004165 -0.058454 0.000000 0.000000 0.000000 10.612153 17.335544 -0.422384 -58.497334 26.953300 7.763568 -2.670775 -48.506711 0.000919 -6.987851 1.166262 -0.069989 -0.036544 0.008607 -0.000000 0.000000 0.000000 0.000000 0.000000 0.000000 0.000000 3.875113 -18.407762 -0.638448 68.033487 -13.565553 13.076717 2.313024 39.891860 0.011456 1.566679 6.068406 0.080508 0.078515 -0.071586 -0.000000 0.000000 0.000000 0.000000 0.000000 0.000000 0.000000 
1.092013 16.941413 0.284973 -24.526715 -79.526932 12.436467 -11.228649 2.670812 1.195034 -2.986375 5.281449 3.270418 -0.739014 1.116698 24.167326 2.662652 15.642750 -14.166604 -1.930100 0.000000 -37.233300 10.711513 -2.496409 -4.378350 -0.999078 -28.735013 -7.188989 -0.780362 -3.483623 50.665261 -2.258077 -12.875885 13.419782 -4.120400 -0.000000 -82.228700 -7.432655 -2.920373 1.680327 -1.914981 -2.579995 -2.059326 -4.457029 -2.537292 1.400134 7.180732 -22.223234 -7.870071 -0.089727 0.002776 -0.058977 0.000000 0.000000 0.000000 10.862797 17.027912 -0.477871 -58.097952 27.057640 8.398567 -2.546073 -49.776544 0.001524 -6.983957 1.136385 -0.068013 -0.029145 0.012620 -0.000000 0.000000 0.000000 0.000000 0.000000 0.000000 0.000000 3.919882 -18.355312 -0.583277 68.656086 -13.908948 12.134787 2.409301 38.765923 0.011814 1.736544 6.092721 0.089805 0.080401 -0.068955 -0.000000 0.000000 0.000000 0.000000 0.000000 0.000000 0.000000 
1.095275 16.948947 0.318346 -25.704797 -78.862760 13.434253 -11.267980 2.624069 1.221891 -2.600958 5.003121 3.495431 -0.700198 1.108895 24.065290 2.631924 15.429305 -14.168724 -1.907300 0.000000 -37.334400 10.758261 -2.429553 -4.483562 -0.812476 -29.164628 -8.712862 -0.879165 -3.602669 53.055078 -2.361255 -13.341643 14.770414 -4.488699 -0.000000 -80.010000 -7.404701 -3.018147 1.805418 -1.927249 -2.688864 -2.039801 -4.534987 -2.642287 1.354481 7.177338 -22.149906 -7.873192 -0.110781 0.001466 -0.062391 0.000000 0.000000 0.000000 11.103833 16.697022 -0.531268 -57.723120 27.145348 8.980308 -2.425884 -51.019334 0.002165 -6.985260 1.092114 -0.065138 -0.021742 0.016939 -0.000000 0.000000 0.000000 0.000000 0.000000 0.000000 0.000000 3.983183 -18.312526 -0.526590 69.268140 -14.223244 11.183860 2.501981 37.697695 0.012110 1.902876 6.093859 0.098601 0.082148 -0.066501 -0.000000 0.000000 0.000000 0.000000 0.000000 0.000000 0.000000 
1.100471 16.955966 0.350469 -26.930406 -78.206248 14.486255 -11.312405 2.574242 1.249102 -2.180700 4.733229 3.664179 -0.658229 1.103140 24.026401 2.603245 15.228197 -14.189897 -1.891100 -0.000000 -37.417199 10.791954 -2.357250 -4.602935 -0.550600 -29.626333 -10.337501 -0.960832 -3.729930 55.435833 -2.452228 -13.801049 15.669284 -4.792300 -0.000000 -77.609500 -7.346892 -3.119033 1.941950 -1.933322 -2.802422 -2.017978 -4.613937 -2.751953 1.309369 7.187056 -22.091065 -7.885454 -0.132915 0.000234 -0.068273 0.000000 0.000000 0.000000 11.329883 16.354088 -0.582266 -57.375558 27.211264 9.504309 -2.311916 -52.216328 0.002816 -6.991085 1.039933 -0.061864 -0.014462 0.021448 -0.000000 0.000000 0.000000 0.000000 0.000000 0.000000 0.000000 4.063035 -18.286396 -0.469798 69.858964 -14.494158 10.258793 2.590038 36.684377 0.012371 2.057113 6.089733 0.106696 0.083799 -0.064313 -0.000000 0.000000 0.000000 0.000000 0.000000 0.000000 0.000000 
1.108325 16.962121 0.381791 -28.218437 -77.560842 15.583945 -11.363534 2.520922 1.269143 -1.720953 4.473388 3.818175 -0.613125 1.101565 24.034071 2.577054 15.041820 -14.226989 -1.880301 -0.000000 -37.483300 10.811559 -2.279125 -4.749527 -0.238165 -30.152476 -12.027822 -1.030509 -3.869453 57.781172 -2.523401 -14.213200 16.084419 -5.001500 -0.000000 -75.269400 -7.247952 -3.221824 2.113352 -1.930674 -2.920137 -1.989409 -4.692727 -2.865409 1.264223 7.203666 -22.039680 -7.905964 -0.156571 -0.000962 -0.076588 0.000000 0.000000 0.000000 11.529180 16.005161 -0.628986 -57.064015 27.245822 9.960256 -2.205865 -53.350949 0.003460 -7.000574 0.984122 -0.058290 -0.007447 0.026030 -0.000000 0.000000 0.000000 0.000000 0.000000 0.000000 0.000000 4.152718 -18.269451 -0.414353 70.427163 -14.716923 9.358372 2.672443 35.736665 0.012598 2.199777 6.084877 0.114191 0.085275 -0.062455 -0.000000 0.000000 0.000000 0.000000 0.000000 0.000000 0.000000 
